<mxfile host="app.diagrams.net" agent="Mozilla/5.0 (Windows NT 10.0; Win64; x64) AppleWebKit/537.36 (KHTML, like Gecko) Chrome/131.0.0.0 Safari/537.36" version="25.0.3">
  <diagram name="PÃ¡gina-1" id="nUhrnNKdIpZCtXRVqotB">
    <mxGraphModel dx="1687" dy="980" grid="1" gridSize="10" guides="1" tooltips="1" connect="1" arrows="1" fold="1" page="1" pageScale="1" pageWidth="1169" pageHeight="827" math="0" shadow="0">
      <root>
        <mxCell id="0" />
        <mxCell id="1" parent="0" />
        <mxCell id="MtPXXzMPgPM-lQMDieqq-10" style="edgeStyle=orthogonalEdgeStyle;rounded=0;orthogonalLoop=1;jettySize=auto;html=1;exitX=0.5;exitY=1;exitDx=0;exitDy=0;exitPerimeter=0;entryX=0.5;entryY=0;entryDx=0;entryDy=0;" edge="1" parent="1" source="MtPXXzMPgPM-lQMDieqq-1" target="MtPXXzMPgPM-lQMDieqq-3">
          <mxGeometry relative="1" as="geometry" />
        </mxCell>
        <mxCell id="MtPXXzMPgPM-lQMDieqq-1" value="INICIO" style="strokeWidth=2;html=1;shape=mxgraph.flowchart.start_1;whiteSpace=wrap;" vertex="1" parent="1">
          <mxGeometry x="527" y="20" width="115" height="50" as="geometry" />
        </mxCell>
        <mxCell id="MtPXXzMPgPM-lQMDieqq-2" value="FIM" style="strokeWidth=2;html=1;shape=mxgraph.flowchart.start_1;whiteSpace=wrap;" vertex="1" parent="1">
          <mxGeometry x="527" y="670" width="115" height="50" as="geometry" />
        </mxCell>
        <mxCell id="MtPXXzMPgPM-lQMDieqq-11" style="edgeStyle=orthogonalEdgeStyle;rounded=0;orthogonalLoop=1;jettySize=auto;html=1;exitX=0.5;exitY=1;exitDx=0;exitDy=0;" edge="1" parent="1" source="MtPXXzMPgPM-lQMDieqq-3" target="MtPXXzMPgPM-lQMDieqq-4">
          <mxGeometry relative="1" as="geometry" />
        </mxCell>
        <mxCell id="MtPXXzMPgPM-lQMDieqq-3" value="NOME" style="shape=parallelogram;html=1;strokeWidth=2;perimeter=parallelogramPerimeter;whiteSpace=wrap;rounded=1;arcSize=12;size=0.23;" vertex="1" parent="1">
          <mxGeometry x="507" y="100" width="155" height="50" as="geometry" />
        </mxCell>
        <mxCell id="MtPXXzMPgPM-lQMDieqq-12" style="edgeStyle=orthogonalEdgeStyle;rounded=0;orthogonalLoop=1;jettySize=auto;html=1;exitX=0.5;exitY=1;exitDx=0;exitDy=0;entryX=0.5;entryY=0;entryDx=0;entryDy=0;" edge="1" parent="1" source="MtPXXzMPgPM-lQMDieqq-4" target="MtPXXzMPgPM-lQMDieqq-5">
          <mxGeometry relative="1" as="geometry" />
        </mxCell>
        <mxCell id="MtPXXzMPgPM-lQMDieqq-4" value="MEDIA = 0" style="rounded=1;whiteSpace=wrap;html=1;absoluteArcSize=1;arcSize=14;strokeWidth=2;" vertex="1" parent="1">
          <mxGeometry x="512" y="180" width="145" height="50" as="geometry" />
        </mxCell>
        <mxCell id="MtPXXzMPgPM-lQMDieqq-14" style="edgeStyle=orthogonalEdgeStyle;rounded=0;orthogonalLoop=1;jettySize=auto;html=1;exitX=0.5;exitY=1;exitDx=0;exitDy=0;entryX=0.5;entryY=0;entryDx=0;entryDy=0;" edge="1" parent="1" source="MtPXXzMPgPM-lQMDieqq-5" target="MtPXXzMPgPM-lQMDieqq-6">
          <mxGeometry relative="1" as="geometry" />
        </mxCell>
        <mxCell id="MtPXXzMPgPM-lQMDieqq-22" value="V" style="edgeLabel;html=1;align=center;verticalAlign=middle;resizable=0;points=[];" vertex="1" connectable="0" parent="MtPXXzMPgPM-lQMDieqq-14">
          <mxGeometry x="-0.3976" y="1" relative="1" as="geometry">
            <mxPoint as="offset" />
          </mxGeometry>
        </mxCell>
        <mxCell id="MtPXXzMPgPM-lQMDieqq-19" style="edgeStyle=orthogonalEdgeStyle;rounded=0;orthogonalLoop=1;jettySize=auto;html=1;exitX=1;exitY=0.5;exitDx=0;exitDy=0;entryX=1;entryY=0.5;entryDx=0;entryDy=0;" edge="1" parent="1" source="MtPXXzMPgPM-lQMDieqq-5" target="MtPXXzMPgPM-lQMDieqq-8">
          <mxGeometry relative="1" as="geometry">
            <Array as="points">
              <mxPoint x="760" y="290" />
              <mxPoint x="760" y="535" />
            </Array>
          </mxGeometry>
        </mxCell>
        <mxCell id="MtPXXzMPgPM-lQMDieqq-20" value="F" style="edgeLabel;html=1;align=center;verticalAlign=middle;resizable=0;points=[];" vertex="1" connectable="0" parent="MtPXXzMPgPM-lQMDieqq-19">
          <mxGeometry x="-0.829" y="-1" relative="1" as="geometry">
            <mxPoint as="offset" />
          </mxGeometry>
        </mxCell>
        <mxCell id="MtPXXzMPgPM-lQMDieqq-5" value="CONTADOR=1, &amp;lt;=4, +1" style="rounded=1;whiteSpace=wrap;html=1;absoluteArcSize=1;arcSize=14;strokeWidth=2;" vertex="1" parent="1">
          <mxGeometry x="483" y="260" width="203" height="60" as="geometry" />
        </mxCell>
        <mxCell id="MtPXXzMPgPM-lQMDieqq-16" style="edgeStyle=orthogonalEdgeStyle;rounded=0;orthogonalLoop=1;jettySize=auto;html=1;exitX=0.5;exitY=1;exitDx=0;exitDy=0;entryX=0.5;entryY=0;entryDx=0;entryDy=0;" edge="1" parent="1" source="MtPXXzMPgPM-lQMDieqq-6" target="MtPXXzMPgPM-lQMDieqq-7">
          <mxGeometry relative="1" as="geometry" />
        </mxCell>
        <mxCell id="MtPXXzMPgPM-lQMDieqq-6" value="NOTA" style="shape=parallelogram;html=1;strokeWidth=2;perimeter=parallelogramPerimeter;whiteSpace=wrap;rounded=1;arcSize=12;size=0.23;" vertex="1" parent="1">
          <mxGeometry x="508" y="360" width="153" height="40" as="geometry" />
        </mxCell>
        <mxCell id="MtPXXzMPgPM-lQMDieqq-13" style="edgeStyle=orthogonalEdgeStyle;rounded=0;orthogonalLoop=1;jettySize=auto;html=1;exitX=0;exitY=0.5;exitDx=0;exitDy=0;entryX=0;entryY=0.5;entryDx=0;entryDy=0;" edge="1" parent="1" source="MtPXXzMPgPM-lQMDieqq-7" target="MtPXXzMPgPM-lQMDieqq-5">
          <mxGeometry relative="1" as="geometry">
            <Array as="points">
              <mxPoint x="420" y="460" />
              <mxPoint x="420" y="290" />
            </Array>
          </mxGeometry>
        </mxCell>
        <mxCell id="MtPXXzMPgPM-lQMDieqq-7" value="MEDIA = MEDIA + NOTA&lt;span style=&quot;color: rgba(0, 0, 0, 0); font-family: monospace; font-size: 0px; text-align: start; text-wrap-mode: nowrap;&quot;&gt;%3CmxGraphModel%3E%3Croot%3E%3CmxCell%20id%3D%220%22%2F%3E%3CmxCell%20id%3D%221%22%20parent%3D%220%22%2F%3E%3CmxCell%20id%3D%222%22%20value%3D%22CONTADOR%3D1%2C%20%26amp%3Blt%3B%3D4%2C%20%2B1%22%20style%3D%22rounded%3D1%3BwhiteSpace%3Dwrap%3Bhtml%3D1%3BabsoluteArcSize%3D1%3BarcSize%3D14%3BstrokeWidth%3D2%3B%22%20vertex%3D%221%22%20parent%3D%221%22%3E%3CmxGeometry%20x%3D%22483%22%20y%3D%22260%22%20width%3D%22203%22%20height%3D%2260%22%20as%3D%22geometry%22%2F%3E%3C%2FmxCell%3E%3C%2Froot%3E%3C%2FmxGraphModel%3E&lt;/span&gt;" style="rounded=1;whiteSpace=wrap;html=1;absoluteArcSize=1;arcSize=14;strokeWidth=2;" vertex="1" parent="1">
          <mxGeometry x="483" y="430" width="203" height="60" as="geometry" />
        </mxCell>
        <mxCell id="MtPXXzMPgPM-lQMDieqq-8" value="MEDIA = MEDIA/4" style="rounded=1;whiteSpace=wrap;html=1;absoluteArcSize=1;arcSize=14;strokeWidth=2;" vertex="1" parent="1">
          <mxGeometry x="511" y="510" width="147" height="50" as="geometry" />
        </mxCell>
        <mxCell id="MtPXXzMPgPM-lQMDieqq-9" value="NOME&lt;div&gt;MEDIA&lt;/div&gt;" style="strokeWidth=2;html=1;shape=mxgraph.flowchart.display;whiteSpace=wrap;" vertex="1" parent="1">
          <mxGeometry x="527" y="580" width="115" height="70" as="geometry" />
        </mxCell>
        <mxCell id="MtPXXzMPgPM-lQMDieqq-23" style="edgeStyle=orthogonalEdgeStyle;rounded=0;orthogonalLoop=1;jettySize=auto;html=1;exitX=0.5;exitY=1;exitDx=0;exitDy=0;entryX=0.5;entryY=0;entryDx=0;entryDy=0;entryPerimeter=0;" edge="1" parent="1" source="MtPXXzMPgPM-lQMDieqq-8" target="MtPXXzMPgPM-lQMDieqq-9">
          <mxGeometry relative="1" as="geometry" />
        </mxCell>
        <mxCell id="MtPXXzMPgPM-lQMDieqq-24" style="edgeStyle=orthogonalEdgeStyle;rounded=0;orthogonalLoop=1;jettySize=auto;html=1;exitX=0.5;exitY=1;exitDx=0;exitDy=0;exitPerimeter=0;entryX=0.5;entryY=0;entryDx=0;entryDy=0;entryPerimeter=0;" edge="1" parent="1" source="MtPXXzMPgPM-lQMDieqq-9" target="MtPXXzMPgPM-lQMDieqq-2">
          <mxGeometry relative="1" as="geometry" />
        </mxCell>
      </root>
    </mxGraphModel>
  </diagram>
</mxfile>
